<svg width="140" height="31" viewBox="0 0 140 31" fill="none" xmlns="http://www.w3.org/2000/svg">
<path d="M0 10.6719C10.6893 10.6719 19.3691 19.3517 19.3691 30.041H9.68455C9.68455 24.6824 5.3586 20.3564 0 20.3564V10.6719Z" fill="#F591CE"/>
<path opacity="0.8" d="M0 20.3281C10.6893 20.3281 19.3691 11.6483 19.3691 0.958984H9.68455C9.68455 6.31758 5.3586 10.6435 0 10.6435V20.3281Z" fill="#2E2EC8"/>
<path d="M33.6951 15.0955L31.7135 17.1328V20.3424H29.3691V7.7832H31.7135V14.2303L37.9094 7.7832H40.5329L35.258 13.393L40.8678 20.3424H38.1327L33.6951 15.0955Z" fill="black"/>
<path d="M47.5944 10.6572V12.7783C47.3991 12.7504 47.2316 12.7225 47.0641 12.7225C46.1989 12.7225 45.5012 12.9737 45.0268 13.4761C44.5244 13.9784 44.3011 14.7041 44.3011 15.6809V20.3139H42.0684V10.7689H44.1895V12.1643C44.8314 11.1596 45.9757 10.6572 47.5944 10.6572Z" fill="black"/>
<path d="M58.814 10.7691L54.3206 21.1235C53.902 22.1561 53.3996 22.9097 52.7856 23.3283C52.1995 23.747 51.4739 23.9703 50.6087 23.9703C50.1342 23.9703 49.6598 23.8865 49.1853 23.747C48.7108 23.5795 48.348 23.3842 48.041 23.1051L48.9341 21.4584C49.1574 21.6538 49.4086 21.8212 49.6877 21.9329C49.9668 22.0445 50.2738 22.1003 50.5808 22.1003C50.9715 22.1003 51.3064 21.9887 51.5576 21.7933C51.8088 21.598 52.06 21.2351 52.2553 20.7607L52.4228 20.3699L48.2364 10.7412H50.5808L53.6508 17.8581L56.6929 10.7691H58.814Z" fill="black"/>
<path d="M60.7667 20.147C60.0131 19.9516 59.427 19.7004 58.9805 19.3655L59.8457 17.663C60.2643 17.9421 60.7946 18.1933 61.4086 18.3608C62.0226 18.5282 62.6087 18.612 63.1948 18.612C64.5344 18.612 65.2043 18.2491 65.2043 17.5514C65.2043 17.2165 65.0368 16.9932 64.7019 16.8537C64.367 16.7141 63.8088 16.6025 63.0552 16.4629C62.2738 16.3513 61.6319 16.2118 61.1295 16.0443C60.6271 15.8768 60.2085 15.6257 59.8457 15.2349C59.4828 14.8442 59.2875 14.3139 59.2875 13.6162C59.2875 12.6952 59.6782 11.9695 60.4318 11.4393C61.1853 10.909 62.218 10.6299 63.5018 10.6299C64.1716 10.6299 64.8135 10.7136 65.4834 10.8532C66.1532 10.9927 66.6835 11.216 67.1021 11.4672L66.2369 13.1696C65.4275 12.6952 64.5065 12.444 63.5018 12.444C62.832 12.444 62.3575 12.5556 61.9947 12.751C61.6598 12.9464 61.4923 13.1975 61.4923 13.5325C61.4923 13.8953 61.6877 14.1465 62.0505 14.286C62.4133 14.4256 62.9715 14.5651 63.753 14.7047C64.5065 14.8163 65.1484 14.9558 65.6229 15.1233C66.1253 15.2907 66.5439 15.5419 66.8788 15.9048C67.2416 16.2676 67.4091 16.7979 67.4091 17.4956C67.4091 18.3887 67.0184 19.1143 66.2369 19.6446C65.4554 20.1749 64.3949 20.454 63.0552 20.454C62.2738 20.454 61.5202 20.3703 60.7667 20.147Z" fill="black"/>
<path d="M75.0849 19.8122C74.8337 20.0355 74.4988 20.2029 74.136 20.2866C73.7732 20.3983 73.3545 20.4541 72.9359 20.4541C71.8753 20.4541 71.066 20.175 70.5078 19.6168C69.9217 19.0586 69.6426 18.2772 69.6426 17.2166V12.6116H68.0518V10.8254H69.6426V8.64844H71.8753V10.8254H74.443V12.6116H71.8753V17.1608C71.8753 17.6353 71.987 17.9702 72.2103 18.2214C72.4335 18.4725 72.7684 18.5842 73.1871 18.5842C73.6894 18.5842 74.1081 18.4446 74.443 18.1934L75.0849 19.8122Z" fill="black"/>
<path d="M83.8487 11.662C84.6023 12.3319 84.9651 13.3645 84.9651 14.7321V20.3419H82.844V19.1697C82.5649 19.5883 82.1742 19.8953 81.6718 20.1186C81.1695 20.3419 80.5554 20.4535 79.8298 20.4535C79.1042 20.4535 78.4901 20.3419 77.932 20.0907C77.4017 19.8395 76.983 19.5046 76.676 19.058C76.369 18.6115 76.2295 18.137 76.2295 17.5788C76.2295 16.7136 76.5365 16.0159 77.1784 15.5135C77.8203 14.9832 78.8251 14.7321 80.1926 14.7321H82.6766V14.5925C82.6766 13.9227 82.4812 13.4203 82.0625 13.0575C81.6718 12.6947 81.0578 12.5272 80.2764 12.5272C79.7461 12.5272 79.2158 12.611 78.6855 12.7784C78.1552 12.9459 77.7366 13.1691 77.3738 13.4761L76.5086 11.8574C77.011 11.4667 77.625 11.1876 78.3227 10.9922C79.0204 10.7968 79.774 10.6852 80.5554 10.6852C82.0067 10.6573 83.0952 10.9922 83.8487 11.662ZM81.7835 18.444C82.23 18.1928 82.537 17.83 82.7045 17.3276V16.2113H80.388C79.1042 16.2113 78.4622 16.6299 78.4622 17.4951C78.4622 17.9137 78.6297 18.2207 78.9367 18.4719C79.2716 18.7231 79.7182 18.8347 80.2764 18.8347C80.8624 18.8347 81.3648 18.6952 81.7835 18.444Z" fill="black"/>
<path d="M87.8389 7.0293H90.0716V20.3421H87.8389V7.0293Z" fill="black"/>
<path d="M103.775 14.9559C104.194 15.4862 104.389 16.156 104.389 16.9375C104.389 18.0259 103.971 18.8632 103.133 19.4493C102.296 20.0354 101.068 20.3424 99.4773 20.3424H93.2256V7.7832H99.1145C100.594 7.7832 101.738 8.0623 102.547 8.64839C103.357 9.23449 103.747 10.016 103.747 11.0486C103.747 11.6626 103.608 12.2208 103.329 12.6953C103.05 13.1697 102.659 13.5325 102.157 13.8116C102.826 14.0349 103.385 14.4256 103.775 14.9559ZM95.57 9.59731V13.0581H98.8633C99.6726 13.0581 100.315 12.9185 100.733 12.6115C101.18 12.3324 101.375 11.8859 101.375 11.3277C101.375 10.7416 101.152 10.323 100.733 10.016C100.287 9.73686 99.6726 9.5694 98.8633 9.5694H95.57V9.59731ZM102.045 16.6863C102.045 15.4862 101.152 14.8722 99.3377 14.8722H95.57V18.5004H99.3377C101.152 18.5004 102.045 17.9143 102.045 16.6863Z" fill="black"/>
<path d="M113.572 11.662C114.325 12.3319 114.688 13.3645 114.688 14.7321V20.3419H112.567V19.1697C112.288 19.5883 111.897 19.8953 111.395 20.1186C110.893 20.3419 110.279 20.4535 109.553 20.4535C108.827 20.4535 108.213 20.3419 107.683 20.0907C107.153 19.8395 106.734 19.5046 106.427 19.058C106.12 18.6115 105.98 18.137 105.98 17.5788C105.98 16.7136 106.287 16.0159 106.929 15.5135C107.571 14.9832 108.576 14.7321 109.944 14.7321H112.428V14.5925C112.428 13.9227 112.232 13.4203 111.814 13.0575C111.423 12.6947 110.809 12.5272 110.027 12.5272C109.497 12.5272 108.967 12.611 108.436 12.7784C107.906 12.9459 107.488 13.1691 107.125 13.4761L106.232 11.8574C106.734 11.4667 107.348 11.1876 108.046 10.9922C108.744 10.7968 109.497 10.6852 110.279 10.6852C111.73 10.6573 112.818 10.9922 113.572 11.662ZM111.534 18.444C111.981 18.1928 112.288 17.83 112.455 17.3276V16.2113H110.139C108.855 16.2113 108.213 16.6299 108.213 17.4951C108.213 17.9137 108.381 18.2207 108.688 18.4719C109.023 18.7231 109.469 18.8347 110.027 18.8347C110.586 18.8347 111.088 18.6952 111.534 18.444Z" fill="black"/>
<path d="M125.908 11.7178C126.633 12.4155 126.996 13.4761 126.996 14.8436V20.3418H124.764V15.1227C124.764 14.2854 124.568 13.6435 124.177 13.2249C123.787 12.8062 123.229 12.583 122.503 12.583C121.666 12.583 121.024 12.8342 120.549 13.3365C120.075 13.8389 119.824 14.5366 119.824 15.4855V20.3418H117.591V10.7689H119.712V11.9969C120.075 11.5503 120.549 11.2154 121.107 10.9921C121.666 10.7689 122.308 10.6572 123.005 10.6572C124.205 10.6572 125.182 10.9921 125.908 11.7178Z" fill="black"/>
<path d="M133.75 16.2394L132.076 17.8302V20.37H129.843V7.0293H132.076V15.0672L136.736 10.7692H139.416L135.425 14.7881L139.806 20.3421H137.071L133.75 16.2394Z" fill="black"/>
</svg>
